<svg width="100" height="100" viewBox="0 0 100 100" fill="none" xmlns="http://www.w3.org/2000/svg">
<path d="M42.2778 57.3333C48.0763 63.2157 55.0925 67.7572 62.8333 70.6389L73.3056 62.3055C73.616 62.0917 73.9841 61.9773 74.3611 61.9773C74.7381 61.9773 75.1062 62.0917 75.4167 62.3055L94.8611 74.8333C95.5993 75.2771 96.2242 75.8865 96.6864 76.6133C97.1486 77.3401 97.4355 78.1644 97.5244 79.0212C97.6133 79.8779 97.5018 80.7436 97.1987 81.5498C96.8956 82.356 96.4091 83.0807 95.7778 83.6667L86.6667 92.6667C85.3619 93.9559 83.7582 94.902 81.9987 95.4207C80.2393 95.9393 78.3788 96.0143 76.5833 95.6389C58.6728 91.9398 42.1643 83.2764 28.9444 70.6389C16.018 57.8757 7.07298 41.6357 3.19444 23.8889C2.81129 22.1212 2.89126 20.2845 3.4266 18.5569C3.96193 16.8292 4.93448 15.2691 6.25 14.0278L15.6944 4.91666C16.2789 4.31607 16.9916 3.85548 17.7793 3.56938C18.567 3.28327 19.4092 3.17907 20.2428 3.26457C21.0765 3.35008 21.88 3.62307 22.5932 4.0631C23.3063 4.50314 23.9108 5.09882 24.3611 5.80555L37.3056 25C37.5288 25.3014 37.6493 25.6666 37.6493 26.0417C37.6493 26.4168 37.5288 26.7819 37.3056 27.0833L28.7778 37.3333C31.7377 44.9193 36.3493 51.7512 42.2778 57.3333V57.3333Z" fill="black"/>
</svg>
